<?xml version="1.0" encoding="utf-8"?>
<svg width="228.165" height="61" viewBox="0 0 228.165 61" fill="none" stroke="none" version="1.1" xmlns:xlink="http://www.w3.org/1999/xlink" xmlns="http://www.w3.org/2000/svg">
  <g id="Oval" opacity="1">
    <path d="M228.165 0L228.165 0L228.165 61L0 61L0 0L228.165 0Z" style="mix-blend-mode:normal;" />
    <g style="mix-blend-mode:normal;">
      <path d="M24.2898 21.1648Q23.9702 18.4659 21.6974 16.9744Q19.4247 15.483 16.1222 15.483Q12.5 15.483 10.2983 17.1964Q8.09659 18.9098 8.09659 21.5199Q8.09659 23.473 9.2951 24.6715Q10.4936 25.87 12.136 26.5359Q13.7784 27.2017 15.1278 27.5568L18.821 28.5511Q20.2415 28.924 21.9904 29.581Q23.7393 30.2379 25.3462 31.3654Q26.9531 32.4929 28.0007 34.2507Q29.0483 36.0085 29.0483 38.5653Q29.0483 41.5128 27.5124 43.892Q25.9766 46.2713 23.038 47.674Q20.0994 49.0767 15.9091 49.0767Q10.0497 49.0767 6.60511 46.3068Q3.16051 43.5369 2.84091 39.0625L7.38636 39.0625Q7.56392 41.1222 8.78018 42.4627Q9.99645 43.8033 11.8697 44.4513Q13.7429 45.0994 15.9091 45.0994Q18.4304 45.0994 20.4368 44.2738Q22.4432 43.4482 23.6151 41.9656Q24.7869 40.483 24.7869 38.4943Q24.7869 36.6832 23.7749 35.5469Q22.7628 34.4105 21.1115 33.7003Q19.4602 32.9901 17.5426 32.4574L13.0682 31.179Q8.80682 29.9538 6.32102 27.6811Q3.83523 25.4084 3.83523 21.733Q3.83523 18.679 5.49538 16.3974Q7.15554 14.1158 9.96982 12.8462Q12.7841 11.5767 16.2642 11.5767Q19.7798 11.5767 22.5142 12.8285Q25.2486 14.0803 26.8555 16.2464Q28.4624 18.4126 28.5511 21.1648L24.2898 21.1648ZM35.7244 48.4375L35.7244 21.1648L39.9148 21.1648L39.9148 48.4375L35.7244 48.4375ZM37.8551 16.6193Q36.63 16.6193 35.7511 15.7848Q34.8722 14.9503 34.8722 13.7784Q34.8722 12.6065 35.7511 11.772Q36.63 10.9375 37.8551 10.9375Q39.0803 10.9375 39.9592 11.772Q40.8381 12.6065 40.8381 13.7784Q40.8381 14.9503 39.9592 15.7848Q39.0803 16.6193 37.8551 16.6193ZM59.7301 21.1648L59.7301 24.7159L53.6222 24.7159L53.6222 48.4375L49.4318 48.4375L49.4318 24.7159L45.0284 24.7159L45.0284 21.1648L49.4318 21.1648L49.4318 17.4006Q49.4318 15.0568 50.5327 13.4943Q51.6335 11.9318 53.3913 11.1506Q55.1491 10.3693 57.1023 10.3693Q58.647 10.3693 59.6236 10.6179Q60.6001 10.8665 61.0795 11.0795L59.8722 14.7017Q59.5526 14.5952 58.9933 14.4354Q58.434 14.2756 57.5284 14.2756Q55.451 14.2756 54.5366 15.3232Q53.6222 16.3707 53.6222 18.3949L53.6222 21.1648L59.7301 21.1648ZM72.8693 49.0767Q70.277 49.0767 68.1641 48.0913Q66.0511 47.1058 64.8082 45.2326Q63.5653 43.3594 63.5653 40.696Q63.5653 38.3523 64.4886 36.8874Q65.4119 35.4226 66.9567 34.5881Q68.5014 33.7536 70.3746 33.3363Q72.2479 32.919 74.1477 32.6705Q76.6335 32.3509 78.1871 32.1822Q79.7408 32.0135 80.4599 31.6051Q81.179 31.1967 81.179 30.1847L81.179 30.0426Q81.179 27.4148 79.7496 25.9588Q78.3203 24.5028 75.4261 24.5028Q72.4254 24.5028 70.7209 25.8168Q69.0163 27.1307 68.3239 28.6222L64.3466 27.2017Q65.4119 24.7159 67.1964 23.3221Q68.9808 21.9283 71.1026 21.369Q73.2244 20.8097 75.2841 20.8097Q76.598 20.8097 78.3114 21.1204Q80.0249 21.4311 81.6317 22.3899Q83.2386 23.3487 84.304 25.2841Q85.3693 27.2195 85.3693 30.4688L85.3693 48.4375L81.179 48.4375L81.179 44.7443L80.9659 44.7443Q80.5398 45.6321 79.5455 46.6442Q78.5511 47.6563 76.8999 48.3665Q75.2486 49.0767 72.8693 49.0767ZM73.5085 45.3125Q75.9943 45.3125 77.7077 44.3359Q79.4212 43.3594 80.3001 41.8146Q81.179 40.2699 81.179 38.5653L81.179 34.7301Q80.9126 35.0497 80.016 35.3072Q79.1193 35.5646 77.9563 35.7511Q76.7933 35.9375 75.7013 36.0707Q74.6094 36.2038 73.9347 36.2926Q72.3011 36.5057 70.8896 36.9762Q69.478 37.4467 68.6168 38.3789Q67.7557 39.3111 67.7557 40.9091Q67.7557 43.093 69.3803 44.2028Q71.005 45.3125 73.5085 45.3125Z" style="fill:#DB0947;" />
    </g>
    <g style="mix-blend-mode:normal;" transform="translate(87 34)">
      <path d="M1.01136 15.5L1.01136 3.86364L5.67045 3.86364Q7.59659 3.86364 8.56534 4.7017Q9.53409 5.53977 9.53409 6.84659Q9.53409 7.875 8.9375 8.50852Q8.34091 9.14205 7.43182 9.34659L7.43182 9.46023Q8.09659 9.48864 8.67898 9.83523Q9.26136 10.1818 9.625 10.8011Q9.98864 11.4205 9.98864 12.2841Q9.98864 13.2102 9.53125 13.9375Q9.07386 14.6648 8.18182 15.0824C7.58712 15.3608 6.85417 15.5 5.98295 15.5L1.01136 15.5ZM3.47159 13.4886L5.47727 13.4886Q6.51136 13.4886 6.98011 13.0909Q7.44886 12.6932 7.44886 12.0398Q7.44886 11.3182 6.93466 10.858Q6.42045 10.3977 5.53409 10.3977L3.47159 10.3977L3.47159 13.4886ZM3.47159 8.73295L5.29545 8.73295Q6.05114 8.73295 6.55114 8.33807Q7.05114 7.94318 7.05114 7.25568Q7.05114 6.625 6.60511 6.23864Q6.15909 5.85227 5.34091 5.85227L3.47159 5.85227L3.47159 8.73295ZM17.1364 11.7841L17.1364 6.77273L19.5568 6.77273L19.5568 15.5L17.233 15.5L17.233 13.9148L17.142 13.9148Q16.8466 14.6818 16.1619 15.1477Q15.4773 15.6136 14.4943 15.6136Q13.1761 15.6136 12.3608 14.7358Q11.5455 13.858 11.5398 12.3295L11.5398 6.77273L13.9602 6.77273L13.9602 11.8977Q13.9659 12.6705 14.375 13.1193Q14.7841 13.5682 15.4716 13.5682Q16.125 13.5682 16.6335 13.1136Q17.142 12.6591 17.1364 11.7841ZM28.75 9.26136L26.5341 9.39773Q26.4432 8.97727 26.0739 8.67614Q25.7045 8.375 25.0739 8.375Q24.5114 8.375 24.1222 8.6108Q23.733 8.84659 23.7386 9.23864Q23.733 9.55114 23.9858 9.76705Q24.2386 9.98295 24.8466 10.1136L26.4261 10.4318Q28.9432 10.9489 28.9489 12.7955Q28.9489 13.6534 28.446 14.3011Q27.9432 14.9489 27.0682 15.3097Q26.1932 15.6705 25.0625 15.6705Q23.3295 15.6705 22.3011 14.946Q21.2727 14.2216 21.1023 12.9716L23.483 12.8466Q23.5966 13.3807 24.0085 13.6534Q24.4205 13.9261 25.0682 13.9261Q25.7045 13.9261 26.0938 13.6761Q26.483 13.4261 26.4886 13.0398Q26.4716 12.392 25.3693 12.1705L23.858 11.8693Q21.3239 11.3636 21.3352 9.375Q21.3295 8.11364 22.3438 7.38636Q23.358 6.65909 25.0341 6.65909Q26.6875 6.65909 27.6392 7.35795Q28.5909 8.05682 28.75 9.26136ZM30.4773 15.5L30.4773 6.77273L32.8977 6.77273L32.8977 15.5L30.4773 15.5ZM31.6932 5.64773Q31.1591 5.64773 30.7727 5.28693Q30.3864 4.92614 30.3864 4.42045Q30.3864 3.91477 30.7727 3.55682Q31.1591 3.19886 31.6932 3.19886Q32.233 3.19886 32.6193 3.55682Q33.0057 3.91477 33.0057 4.42045Q33.0057 4.92614 32.6193 5.28693Q32.233 5.64773 31.6932 5.64773ZM37.25 10.4545L37.25 15.5L34.8295 15.5L34.8295 6.77273L37.1364 6.77273L37.1364 8.3125L37.2386 8.3125Q37.5341 7.55114 38.2131 7.10511Q38.892 6.65909 39.8636 6.65909Q41.2273 6.65909 42.0511 7.53693Q42.875 8.41477 42.875 9.94318L42.875 15.5L40.4545 15.5L40.4545 10.375Q40.4602 9.57386 40.0455 9.12216Q39.6307 8.67045 38.9034 8.67045Q38.1705 8.67045 37.7131 9.1392Q37.2557 9.60795 37.25 10.4545ZM47.1989 10.4545L47.1989 15.5L44.7784 15.5L44.7784 6.77273L47.0852 6.77273L47.0852 8.3125L47.1875 8.3125Q47.483 7.55114 48.1619 7.10511Q48.8409 6.65909 49.8125 6.65909Q51.1761 6.65909 52 7.53693Q52.8239 8.41477 52.8239 9.94318L52.8239 15.5L50.4034 15.5L50.4034 10.375Q50.4091 9.57386 49.9943 9.12216Q49.5795 8.67045 48.8523 8.67045Q48.1193 8.67045 47.6619 9.1392Q47.2045 9.60795 47.1989 10.4545ZM58.7045 15.6705Q57.3636 15.6705 56.392 15.1222Q55.4205 14.5739 54.8977 13.5653Q54.375 12.5568 54.375 11.1761Q54.375 9.82955 54.8977 8.8125Q55.4205 7.79545 56.3722 7.22727Q57.3239 6.65909 58.608 6.65909Q59.7614 6.65909 60.6903 7.14773Q61.6193 7.63636 62.1648 8.62216Q62.7102 9.60795 62.7102 11.0909L62.7102 11.7557L56.767 11.7557L56.767 11.7614Q56.767 12.7386 57.3011 13.3011Q57.8352 13.8636 58.7443 13.8636Q59.3523 13.8636 59.7955 13.608Q60.2386 13.3523 60.4205 12.8523L62.6591 13Q62.4034 14.2159 61.3636 14.9432Q60.3239 15.6705 58.7045 15.6705ZM56.767 10.2557L60.4318 10.2557Q60.4261 9.47727 59.9318 8.97159Q59.4375 8.46591 58.6477 8.46591Q57.8409 8.46591 57.3239 8.98864Q56.8068 9.51136 56.767 10.2557ZM71.5511 9.26136L69.3352 9.39773Q69.2443 8.97727 68.875 8.67614Q68.5057 8.375 67.875 8.375Q67.3125 8.375 66.9233 8.6108Q66.5341 8.84659 66.5398 9.23864Q66.5341 9.55114 66.7869 9.76705Q67.0398 9.98295 67.6477 10.1136L69.2273 10.4318Q71.7443 10.9489 71.75 12.7955Q71.75 13.6534 71.2472 14.3011Q70.7443 14.9489 69.8693 15.3097Q68.9943 15.6705 67.8636 15.6705Q66.1307 15.6705 65.1023 14.946Q64.0739 14.2216 63.9034 12.9716L66.2841 12.8466Q66.3977 13.3807 66.8097 13.6534Q67.2216 13.9261 67.8693 13.9261Q68.5057 13.9261 68.8949 13.6761Q69.2841 13.4261 69.2898 13.0398Q69.2727 12.392 68.1705 12.1705L66.6591 11.8693Q64.125 11.3636 64.1364 9.375Q64.1307 8.11364 65.1449 7.38636Q66.1591 6.65909 67.8352 6.65909Q69.4886 6.65909 70.4403 7.35795Q71.392 8.05682 71.5511 9.26136ZM80.5398 9.26136L78.3239 9.39773Q78.233 8.97727 77.8636 8.67614Q77.4943 8.375 76.8636 8.375Q76.3011 8.375 75.9119 8.6108Q75.5227 8.84659 75.5284 9.23864Q75.5227 9.55114 75.7756 9.76705Q76.0284 9.98295 76.6364 10.1136L78.2159 10.4318Q80.733 10.9489 80.7386 12.7955Q80.7386 13.6534 80.2358 14.3011Q79.733 14.9489 78.858 15.3097Q77.983 15.6705 76.8523 15.6705Q75.1193 15.6705 74.0909 14.946Q73.0625 14.2216 72.892 12.9716L75.2727 12.8466Q75.3864 13.3807 75.7983 13.6534Q76.2102 13.9261 76.858 13.9261Q77.4943 13.9261 77.8835 13.6761Q78.2727 13.4261 78.2784 13.0398Q78.2614 12.392 77.1591 12.1705L75.6477 11.8693Q73.1136 11.3636 73.125 9.375Q73.1193 8.11364 74.1335 7.38636Q75.1477 6.65909 76.8239 6.65909Q78.4773 6.65909 79.429 7.35795Q80.3807 8.05682 80.5398 9.26136ZM93.2386 9.26136L91.0227 9.39773Q90.9318 8.97727 90.5625 8.67614Q90.1932 8.375 89.5625 8.375Q89 8.375 88.6108 8.6108Q88.2216 8.84659 88.2273 9.23864Q88.2216 9.55114 88.4744 9.76705Q88.7273 9.98295 89.3352 10.1136L90.9148 10.4318Q93.4318 10.9489 93.4375 12.7955Q93.4375 13.6534 92.9347 14.3011Q92.4318 14.9489 91.5568 15.3097Q90.6818 15.6705 89.5511 15.6705Q87.8182 15.6705 86.7898 14.946Q85.7614 14.2216 85.5909 12.9716L87.9716 12.8466Q88.0852 13.3807 88.4972 13.6534Q88.9091 13.9261 89.5568 13.9261Q90.1932 13.9261 90.5824 13.6761Q90.9716 13.4261 90.9773 13.0398Q90.9602 12.392 89.858 12.1705L88.3466 11.8693Q85.8125 11.3636 85.8239 9.375Q85.8182 8.11364 86.8324 7.38636Q87.8466 6.65909 89.5227 6.65909Q91.1761 6.65909 92.1278 7.35795Q93.0796 8.05682 93.2386 9.26136ZM97.3864 10.4545L97.3864 15.5L94.9659 15.5L94.9659 3.86364L97.3182 3.86364L97.3182 8.3125L97.4205 8.3125Q97.7216 7.53977 98.3778 7.09943Q99.0341 6.65909 100.028 6.65909Q101.392 6.65909 102.222 7.53409Q103.051 8.40909 103.045 9.94318L103.045 15.5L100.625 15.5L100.625 10.375Q100.631 9.56818 100.219 9.11932Q99.8068 8.67045 99.0682 8.67045Q98.3296 8.67045 97.8608 9.1392Q97.3921 9.60795 97.3864 10.4545ZM108.898 15.6705Q107.574 15.6705 106.611 15.1051Q105.648 14.5398 105.125 13.5256Q104.602 12.5114 104.602 11.1705Q104.602 9.81818 105.125 8.80398Q105.648 7.78977 106.611 7.22443Q107.574 6.65909 108.898 6.65909Q110.222 6.65909 111.185 7.22443Q112.148 7.78977 112.67 8.80398Q113.193 9.81818 113.193 11.1705Q113.193 12.5114 112.67 13.5256Q112.148 14.5398 111.185 15.1051Q110.222 15.6705 108.898 15.6705ZM108.909 13.7955Q109.807 13.7955 110.27 13.0455Q110.733 12.2955 110.733 11.1534Q110.733 10.0114 110.27 9.25852Q109.807 8.50568 108.909 8.50568Q107.994 8.50568 107.528 9.25852Q107.063 10.0114 107.063 11.1534Q107.063 12.2955 107.528 13.0455Q107.994 13.7955 108.909 13.7955ZM114.773 18.7727L114.773 6.77273L117.159 6.77273L117.159 8.23864L117.267 8.23864Q117.432 7.88068 117.733 7.51705Q118.034 7.15341 118.528 6.90625Q119.023 6.65909 119.75 6.65909Q120.71 6.65909 121.511 7.15625Q122.313 7.65341 122.798 8.65057Q123.284 9.64773 123.284 11.1477Q123.284 12.608 122.813 13.6108Q122.341 14.6136 121.54 15.1278Q120.739 15.642 119.744 15.642Q119.04 15.642 118.548 15.4091Q118.057 15.1761 117.747 14.821Q117.438 14.4659 117.267 14.1023L117.193 14.1023L117.193 18.7727L114.773 18.7727ZM117.142 11.1364Q117.142 12.3011 117.622 13.0085Q118.102 13.7159 118.977 13.7159Q119.869 13.7159 120.341 12.9972Q120.813 12.2784 120.813 11.1364Q120.813 10 120.344 9.29261Q119.875 8.58523 118.977 8.58523Q118.097 8.58523 117.619 9.27557Q117.142 9.96591 117.142 11.1364Z" style="fill:#28D092;" />
    </g>
    <path id="Oval" d="M0.714066 19.0214C0.71405 8.51611 -0.892593 20.3651 0.714096 19.0215C3.23602 16.9124 6.74562 10.2772 15.072 7.83237C17.0461 7.25272 9.94479 0 21.3315 0C32.7182 0 27.9927 5.74329 29.9659 7.83227C37.04 15.3218 41.9377 16.8399 41.9489 19.0214C42.0638 41.3865 41.949 8.51611 41.949 19.0214C41.949 29.5267 32.7182 10.0702 21.3315 10.0702C9.94479 10.0702 0.714066 29.5267 0.714066 19.0214Z" style="fill:#DB0947;fill-rule:evenodd;mix-blend-mode:normal;" transform="matrix(0.956 0.292 -0.292 0.956 188 8)" />
    <path id="Oval" d="M0 1.5C0 0.671574 0.67157 0 1.5 0C2.32843 0 3 0.671574 3 1.5C3 2.32843 2.32843 3 1.5 3C0.67157 3 0 2.32843 0 1.5Z" style="fill:#DB0947;fill-rule:evenodd;mix-blend-mode:normal;" transform="translate(117 37)" />
    <path id="Oval" d="M0 6C0 3.79086 1.79086 0 4 0C6.20914 0 8 3.79086 8 6C8 8.20914 6.20914 4 4 4C1.79086 4 0 8.20914 0 6Z" style="fill:#28D092;fill-rule:evenodd;mix-blend-mode:normal;" transform="translate(34 8)" />
  </g>
</svg>